<svg width="17" height="18" viewBox="0 0 17 18" fill="none" xmlns="http://www.w3.org/2000/svg">
<g clip-path="url(#clip0_1_3919)">
<path d="M11.839 18.0003H2.70014C2.02171 18.0003 1.47021 17.4158 1.47021 16.698V4.09671C1.47021 3.37889 2.02171 2.79443 2.70014 2.79443H3.86315C3.99894 2.79443 4.10914 2.91112 4.10914 3.05489C4.10914 3.19866 3.99894 3.31534 3.86315 3.31534H2.70014C2.29328 3.31534 1.96218 3.66591 1.96218 4.09671V16.6975C1.96218 17.1283 2.29328 17.4789 2.70014 17.4789H11.839C12.2458 17.4789 12.5769 17.1283 12.5769 16.6975V15.4655C12.5769 15.3218 12.6871 15.2051 12.8229 15.2051C12.9587 15.2051 13.0689 15.3218 13.0689 15.4655V16.6975C13.0689 17.4158 12.5174 18.0003 11.839 18.0003Z" fill="#858585"/>
<path d="M14.2984 15.2053H5.15961C4.48119 15.2053 3.92969 14.6209 3.92969 13.9031V1.30227C3.92969 0.58446 4.48119 0 5.15961 0H11.8524C11.9881 0 12.0983 0.116684 12.0983 0.260454C12.0983 0.404225 11.9886 0.520909 11.8529 0.520909H5.15961C4.75275 0.520909 4.42166 0.87148 4.42166 1.30227V13.9031C4.42166 14.3338 4.75275 14.6844 5.15961 14.6844H14.2984C14.7053 14.6844 15.0364 14.3338 15.0364 13.9031V3.99068C15.0364 3.84691 15.1466 3.73023 15.2824 3.73023C15.4182 3.73023 15.5284 3.84691 15.5284 3.99068V13.9031C15.5284 14.6214 14.9769 15.2053 14.2984 15.2053Z" fill="#858585"/>
<path d="M15.2824 4.25111H11.8524C11.7166 4.25111 11.6064 4.13442 11.6064 3.99065V0.358355C11.6064 0.214584 11.7166 0.0979004 11.8524 0.0979004C11.9882 0.0979004 12.0984 0.214584 12.0984 0.358355V3.7302H15.2824C15.4182 3.7302 15.5284 3.84688 15.5284 3.99065C15.5284 4.13442 15.4187 4.25111 15.2824 4.25111Z" fill="#858585"/>
<path d="M15.2821 4.25136C15.2181 4.25136 15.1542 4.22479 15.106 4.1727L11.676 0.442471C11.5815 0.339331 11.5835 0.174724 11.6809 0.0741889C11.7778 -0.0253047 11.9347 -0.023221 12.0287 0.079398L15.4587 3.80963C15.5532 3.91277 15.5512 4.07737 15.4538 4.17791C15.4061 4.22687 15.3441 4.25136 15.2821 4.25136Z" fill="#858585"/>
</g>
<defs>
<clipPath id="clip0_1_3919">
<rect width="17" height="18" fill="white"/>
</clipPath>
</defs>
</svg>
